:SAMPLES-PER-SECOND 30
:FULLY-SPECIFIED
:DEGREES
137
root  -60.172 35.0109 6.48277 -29.7317 -79.7916 48.192
RightUpLeg  -64.8791 -27.8343 -1.662
RightLeg  48.8571 9.22257 10.7949
RightFoot  -0.628288 0.168991 -1.86501
RightToes  5.82063e-011 0 -3.6325e-017
Spine  69.3205 -10.5739 10.2279
Spine1  -2.09803 -5.83662 1.95339
HEad  -52.0946 -14.1238 3.78251
LeftShoulder1  1.49914 -10.9684 -2.20208
LeftArm  -63.4875 -63.2468 -8.01286
LeftForeArm  -8.25728 -29.7156 -6.89427
LeftHand  -0.0767522 6.79245 -2.81738
RightShoulder  0.865216 8.13434 -1.13994
RightArm  -67.912 43.3836 1.64048
RightForeArm  -19.9991 36.5074 9.39124
RightHand  -0.0550622 11.8912 -0.809596
LeftUpLeg  -58.5024 2.92524 -5.38007
LeftLeg  46.9102 -2.14422 -2.03353
LeftFoot  -4.31192 -0.0842873 1.7862
LeftToes  1.68253e-010 -3.2327e-011 -2.69673e-012
138
root  -59.8238 35.4392 6.8026 -35.8482 -81.322 52.3302
RightUpLeg  -60.6732 -25.6917 -3.21695
RightLeg  44.7517 9.78703 9.93632
RightFoot  1.35129 0.0628146 -0.472931
RightToes  5.82063e-011 0 -3.6325e-017
Spine  68.2311 -9.74606 8.94346
Spine1  -0.871363 -5.52886 0.946017
HEad  -51.4215 -12.8604 3.5282
LeftShoulder1  1.78811 -9.44753 -6.08256
LeftArm  -56.0856 -62.4871 -12.2797
LeftForeArm  -7.8411 -33.8345 -7.9732
LeftHand  -0.0925584 6.71631 -4.43004
RightShoulder  0.933058 6.54625 0.958291
RightArm  -63.2943 44.1604 8.47159
RightForeArm  -18.9185 42.3557 11.3223
RightHand  -0.18299 11.3154 -1.68788
LeftUpLeg  -55.4214 4.66028 -5.62569
LeftLeg  44.4901 -2.27607 -2.00162
LeftFoot  -3.13438 -0.125533 2.02939
LeftToes  1.68253e-010 -3.2327e-011 -2.69673e-012
139
root  -59.5207 35.8811 7.10501 -45.6223 -83.0169 60.0727
RightUpLeg  -56.2125 -22.9069 -4.54615
RightLeg  40.1904 9.9959 8.66915
RightFoot  3.30653 -0.0698768 0.70438
RightToes  5.82063e-011 0 -3.6325e-017
Spine  67.048 -8.54862 7.80516
Spine1  -0.159907 -4.7294 -0.0438014
HEad  -50.0898 -13.3175 1.72201
LeftShoulder1  2.00496 -8.51807 -9.25815
LeftArm  -49.1782 -60.8054 -17.5888
LeftForeArm  -5.17507 -38.5394 -9.23348
LeftHand  -0.022741 5.13218 -4.24887
RightShoulder  0.938571 4.7159 3.46648
RightArm  -57.8463 44.392 14.9271
RightForeArm  -17.701 47.1867 13.2658
RightHand  -0.252144 10.854 -2.22413
LeftUpLeg  -52.0165 5.97203 -5.19382
LeftLeg  41.7908 -1.79551 -1.33211
LeftFoot  -2.20067 -0.117195 1.61736
LeftToes  1.68253e-010 -3.2327e-011 -2.69673e-012
140
root  -59.1894 36.3647 7.31845 -63.0895 -84.6921 75.1013
RightUpLeg  -51.1343 -19.4646 -5.83532
RightLeg  35.0349 9.94166 7.16392
RightFoot  5.15396 -0.297025 2.28468
RightToes  5.82063e-011 0 -3.6325e-017
Spine  65.8121 -6.88033 6.44593
Spine1  0.846764 -3.28539 -1.34256
HEad  -48.869 -12.3978 1.94283
LeftShoulder1  2.16998 -8.24305 -11.3383
LeftArm  -42.4435 -58.274 -23.2337
LeftForeArm  -3.72597 -42.8932 -10.6324
LeftHand  -0.0244958 5.00417 -4.19983
RightShoulder  0.922687 2.99415 6.47417
RightArm  -52.7061 43.5931 20.6183
RightForeArm  -16.845 51.5377 15.3971
RightHand  -0.474763 9.90115 -3.98983
LeftUpLeg  -48.1051 8.31925 -4.83143
LeftLeg  38.8339 -1.79061 -1.16735
LeftFoot  -0.90058 -0.188111 2.12218
LeftToes  1.68253e-010 -3.2327e-011 -2.69673e-012
141
root  -58.8952 36.7337 7.47828 -75.029 -86.0059 84.9957
RightUpLeg  -46.7571 -17.5829 -5.93034
RightLeg  30.7395 9.593 5.88873
RightFoot  4.6964 -0.554053 4.24202
RightToes  5.82063e-011 0 -3.6325e-017
Spine  63.1117 -5.64683 5.7859
Spine1  2.61056 -2.30965 -1.38151
HEad  -48.3338 -11.5206 0.665783
LeftShoulder1  2.19666 -6.93142 -14.1156
LeftArm  -36.0915 -56.5151 -28.0762
LeftForeArm  -3.25586 -46.1246 -11.8769
LeftHand  0.0243442 3.33738 -2.40571
RightShoulder  0.90385 2.50589 7.48979
RightArm  -48.7917 41.3702 25.4368
RightForeArm  -15.5982 54.8444 17.3367
RightHand  -0.430545 8.77344 -3.91199
LeftUpLeg  -44.9938 10.2384 -4.00513
LeftLeg  36.3227 -2.27178 -1.42513
LeftFoot  0.207502 -0.208083 2.05104
LeftToes  1.68253e-010 -3.2327e-011 -2.69673e-012
142
root  -58.5917 37.0495 7.51949 -84.3193 -86.9646 92.6658
RightUpLeg  -43.3047 -16.2031 -5.97413
RightLeg  28.4702 8.03233 4.46329
RightFoot  0.951577 -0.737819 6.85611
RightToes  5.82063e-011 0 -3.6325e-017
Spine  60.1607 -4.77172 5.47199
Spine1  3.28687 -1.335 -2.02653
HEad  -44.7329 -12.3847 -1.69523
LeftShoulder1  2.33957 -6.65994 -16.2868
LeftArm  -31.1252 -53.9147 -31.2928
LeftForeArm  -1.57015 -48.9295 -13.0088
LeftHand  0.0260507 3.73415 -3.40413
RightShoulder  0.993678 2.21679 10.1527
RightArm  -44.6353 38.6972 27.5789
RightForeArm  -14.7188 57.3093 19.0369
RightHand  -0.380833 7.00555 -3.90826
LeftUpLeg  -42.4306 11.6558 -3.148
LeftLeg  33.9225 -2.9314 -1.76137
LeftFoot  1.47901 -0.217607 1.85029
LeftToes  1.68253e-010 -3.2327e-011 -2.69673e-012
143
root  -58.32 37.289 7.418 -100.331 -87.6678 107.164
RightUpLeg  -40.7588 -13.8432 -6.21727
RightLeg  30.2674 5.8169 3.40822
RightFoot  -2.7651 -0.53739 6.87038
RightToes  5.82063e-011 0 -3.6325e-017
Spine  57.0047 -3.57468 4.86267
Spine1  3.65144 -0.252991 -2.23595
HEad  -42.5709 -11.399 -2.83541
LeftShoulder1  2.43596 -6.14425 -18.7319
LeftArm  -25.9207 -51.1889 -33.7809
LeftForeArm  -0.0301391 -51.3633 -14.1078
LeftHand  0.0366676 3.09353 -2.9319
RightShoulder  1.0168 1.56641 13.105
RightArm  -40.1229 36.9049 28.4003
RightForeArm  -14.9706 58.5524 20.0583
RightHand  -0.351022 7.13754 -3.61044
LeftUpLeg  -40.1105 12.9289 -2.07235
LeftLeg  31.8854 -3.60544 -2.06104
LeftFoot  2.74812 -0.268789 2.04328
LeftToes  1.68253e-010 -3.2327e-011 -2.69673e-012
144
root  -58.046 37.4597 7.15951 -129.186 -88.0746 134.001
RightUpLeg  -37.9216 -8.61296 -7.25792
RightLeg  35.3159 3.97453 2.77097
RightFoot  -5.38965 -0.351155 6.01727
RightToes  5.82063e-011 0 -3.6325e-017
Spine  54.0235 -1.92635 3.8019
Spine1  4.36718 0.772714 -1.46499
HEad  -41.6258 -10.2241 -4.16255
LeftShoulder1  2.29238 -4.99876 -20.5333
LeftArm  -21.7157 -48.2885 -36.7975
LeftForeArm  1.89079 -53.4876 -15.1422
LeftHand  0.0322394 2.49003 -1.87606
RightShoulder  0.985013 1.04076 14.9219
RightArm  -35.5723 35.2184 28.9297
RightForeArm  -14.2866 59.4811 20.8369
RightHand  -0.258026 7.77585 -2.63216
LeftUpLeg  -37.4878 14.5796 -0.636162
LeftLeg  30.394 -4.47926 -2.48097
LeftFoot  3.67614 -0.255118 1.7663
LeftToes  1.68253e-010 -3.2327e-011 -2.69673e-012
145
root  -57.7525 37.5527 6.75623 -127.789 -88.5522 130.631
RightUpLeg  -34.6738 -3.05234 -8.04387
RightLeg  40.8875 3.50006 2.97973
RightFoot  -8.40037 -0.199479 5.59021
RightToes  5.82063e-011 0 -3.6325e-017
Spine  51.2395 -1.0247 3.24832
Spine1  4.51611 1.44029 -1.50117
HEad  -39.8247 -9.36559 -5.98682
LeftShoulder1  2.28199 -4.58231 -21.8855
LeftArm  -19.3793 -44.717 -38.553
LeftForeArm  3.48573 -55.2163 -16.0604
LeftHand  0.0163326 3.60416 -2.42682
RightShoulder  0.928569 0.515878 16.4975
RightArm  -30.8648 32.5409 30.1344
RightForeArm  -13.6598 61.3274 22.5266
RightHand  -0.356711 7.94903 -3.47373
LeftUpLeg  -35.0852 15.1197 0.891224
LeftLeg  28.9733 -5.30176 -2.8191
LeftFoot  4.85374 -0.231045 1.41812
LeftToes  1.68253e-010 -3.2327e-011 -2.69673e-012
146
root  -57.4442 37.5801 6.38052 -50.9044 -88.8598 51.8083
RightUpLeg  -30.545 0.469527 -8.48276
RightLeg  45.5469 4.82611 4.97015
RightFoot  -11.2183 -0.0770081 6.70478
RightToes  5.82063e-011 0 -3.6325e-017
Spine  48.4729 -1.19131 3.15489
Spine1  4.96487 0.93133 -1.23468
HEad  -37.8116 -8.68583 -7.02262
LeftShoulder1  2.22842 -4.21644 -22.5679
LeftArm  -17.2071 -41.3719 -38.8341
LeftForeArm  2.35074 -55.8254 -16.5663
LeftHand  0.0228207 3.47256 -2.76924
RightShoulder  0.886359 0.15028 17.776
RightArm  -26.661 30.9713 30.5291
RightForeArm  -14.4406 61.9082 23.2096
RightHand  -0.388579 7.6221 -3.82279
LeftUpLeg  -32.888 13.889 1.64418
LeftLeg  27.3398 -5.93365 -2.9742
LeftFoot  6.21575 -0.169062 0.849672
LeftToes  1.68253e-010 -3.2327e-011 -2.69673e-012
